<svg xmlns="http://www.w3.org/2000/svg" viewBox="0 0 640 640" role="img" aria-label="Profile illustration">
  <defs>
    <linearGradient id="glow" x1="0%" y1="0%" x2="100%" y2="100%">
      <stop offset="0%" stop-color="#C9A227" stop-opacity="0.18" />
      <stop offset="100%" stop-color="#E6EDF3" stop-opacity="0.04" />
    </linearGradient>
  </defs>
  <rect width="640" height="640" rx="120" fill="#111820" />
  <path fill="url(#glow)" d="M140 420C140 310 220 240 320 240s180 70 180 180-80 140-180 140S140 530 140 420Z" />
  <circle cx="320" cy="265" r="92" fill="#1F2937" />
  <path d="M212 522c0-84 54-118 108-118s108 34 108 118" fill="#141A22" />
  <path fill="#E6EDF3" d="M285 247h70a18 18 0 1 1 0 36h-70a18 18 0 1 1 0-36Z" />
  <path fill="#E6EDF3" d="M205 375c0-58 47-105 105-105s105 47 105 105v20h-210v-20Z" />
  <path fill="#E6EDF3" opacity="0.18" d="M320 166c34 0 62 28 62 62s-28 62-62 62-62-28-62-62 28-62 62-62Z" />
  <circle cx="260" cy="250" r="12" fill="#E6EDF3" opacity="0.8" />
  <circle cx="380" cy="250" r="12" fill="#E6EDF3" opacity="0.8" />
  <path d="M283 340c8 12 24 12 32 0" stroke="#E6EDF3" stroke-width="14" stroke-linecap="round" fill="none" opacity="0.9" />
</svg>
